<?xml version="1.0" encoding="UTF-8" standalone="no"?>
<!DOCTYPE svg PUBLIC "-//W3C//DTD SVG 1.1//EN"
 "http://www.w3.org/Graphics/SVG/1.1/DTD/svg11.dtd">
<!-- Generated by graphviz version 2.36.0 (20140111.2315)
 -->
<!-- Title: g Pages: 1 -->
<svg width="1916pt" height="1076pt"
 viewBox="0.00 0.00 1916.00 1076.00" xmlns="http://www.w3.org/2000/svg" xmlns:xlink="http://www.w3.org/1999/xlink">
<g id="graph0" class="graph" transform="scale(1 1) rotate(0) translate(4 1072)">
<title>g</title>
<polygon fill="white" stroke="none" points="-4,4 -4,-1072 1912,-1072 1912,4 -4,4"/>
<!-- answer -->
<g id="node1" class="node"><title>answer</title>
<polygon fill="#b2dfee" stroke="black" points="585.5,-707 585.5,-799 878.5,-799 878.5,-707 585.5,-707"/>
<text text-anchor="middle" x="732" y="-783.8" font-family="Times,serif" font-size="14.00">answer</text>
<polyline fill="none" stroke="black" points="585.5,-776 878.5,-776 "/>
<text text-anchor="middle" x="732" y="-760.8" font-family="Times,serif" font-size="14.00">id integer NOT NULL</text>
<polyline fill="none" stroke="black" points="585.5,-753 878.5,-753 "/>
<text text-anchor="middle" x="732" y="-737.8" font-family="Times,serif" font-size="14.00">description character varying ( 1024 ) NOT NULL</text>
<polyline fill="none" stroke="black" points="585.5,-730 878.5,-730 "/>
<text text-anchor="middle" x="732" y="-714.8" font-family="Times,serif" font-size="14.00">image_path character varying ( 1024 )</text>
</g>
<!-- answer_category -->
<g id="node2" class="node"><title>answer_category</title>
<polygon fill="#b2dfee" stroke="black" points="82.5,-707 82.5,-799 381.5,-799 381.5,-707 82.5,-707"/>
<text text-anchor="middle" x="232" y="-783.8" font-family="Times,serif" font-size="14.00">answer_category</text>
<polyline fill="none" stroke="black" points="82.5,-776 381.5,-776 "/>
<text text-anchor="middle" x="232" y="-760.8" font-family="Times,serif" font-size="14.00">answer_id integer NOT NULL</text>
<polyline fill="none" stroke="black" points="82.5,-753 381.5,-753 "/>
<text text-anchor="middle" x="232" y="-737.8" font-family="Times,serif" font-size="14.00">category_code character varying ( 20 ) NOT NULL</text>
<polyline fill="none" stroke="black" points="82.5,-730 381.5,-730 "/>
<text text-anchor="middle" x="232" y="-714.8" font-family="Times,serif" font-size="14.00">category_type character varying ( 20 )</text>
</g>
<!-- answer_category&#45;&gt;answer -->
<g id="edge1" class="edge"><title>answer_category:answer_id&#45;&gt;answer:id</title>
<path fill="none" stroke="black" d="M383,-765C468.844,-765 492.82,-765 573.83,-765"/>
<polygon fill="black" stroke="black" points="574,-768.5 584,-765 574,-761.5 574,-768.5"/>
</g>
<!-- category_code -->
<g id="node3" class="node"><title>category_code</title>
<polygon fill="#b2dfee" stroke="black" points="84,-976 84,-1068 380,-1068 380,-976 84,-976"/>
<text text-anchor="middle" x="232" y="-1052.8" font-family="Times,serif" font-size="14.00">category_code</text>
<polyline fill="none" stroke="black" points="84,-1045 380,-1045 "/>
<text text-anchor="middle" x="232" y="-1029.8" font-family="Times,serif" font-size="14.00">code character varying ( 20 ) NOT NULL</text>
<polyline fill="none" stroke="black" points="84,-1022 380,-1022 "/>
<text text-anchor="middle" x="232" y="-1006.8" font-family="Times,serif" font-size="14.00">category_type character varying ( 20 ) NOT NULL</text>
<polyline fill="none" stroke="black" points="84,-999 380,-999 "/>
<text text-anchor="middle" x="232" y="-983.8" font-family="Times,serif" font-size="14.00">description character varying ( 100 ) NOT NULL</text>
</g>
<!-- category_type -->
<g id="node4" class="node"><title>category_type</title>
<polygon fill="#b2dfee" stroke="black" points="588.5,-975.5 588.5,-1044.5 875.5,-1044.5 875.5,-975.5 588.5,-975.5"/>
<text text-anchor="middle" x="732" y="-1029.3" font-family="Times,serif" font-size="14.00">category_type</text>
<polyline fill="none" stroke="black" points="588.5,-1021.5 875.5,-1021.5 "/>
<text text-anchor="middle" x="732" y="-1006.3" font-family="Times,serif" font-size="14.00">code character varying ( 20 ) NOT NULL</text>
<polyline fill="none" stroke="black" points="588.5,-998.5 875.5,-998.5 "/>
<text text-anchor="middle" x="732" y="-983.3" font-family="Times,serif" font-size="14.00">description character varying ( 100 ) NOT NULL</text>
</g>
<!-- category_code&#45;&gt;category_type -->
<g id="edge2" class="edge"><title>category_code:category_type&#45;&gt;category_type:code</title>
<path fill="none" stroke="black" d="M381,-1010C469.069,-1010 493.601,-1010 576.83,-1010"/>
<polygon fill="black" stroke="black" points="577,-1013.5 587,-1010 577,-1006.5 577,-1013.5"/>
</g>
<!-- choice -->
<g id="node5" class="node"><title>choice</title>
<polygon fill="#b2dfee" stroke="black" points="89,-818 89,-956 375,-956 375,-818 89,-818"/>
<text text-anchor="middle" x="232" y="-940.8" font-family="Times,serif" font-size="14.00">choice</text>
<polyline fill="none" stroke="black" points="89,-933 375,-933 "/>
<text text-anchor="middle" x="232" y="-917.8" font-family="Times,serif" font-size="14.00">id integer NOT NULL</text>
<polyline fill="none" stroke="black" points="89,-910 375,-910 "/>
<text text-anchor="middle" x="232" y="-894.8" font-family="Times,serif" font-size="14.00">question_id integer NOT NULL</text>
<polyline fill="none" stroke="black" points="89,-887 375,-887 "/>
<text text-anchor="middle" x="232" y="-871.8" font-family="Times,serif" font-size="14.00">answer_id integer NOT NULL</text>
<polyline fill="none" stroke="black" points="89,-864 375,-864 "/>
<text text-anchor="middle" x="232" y="-848.8" font-family="Times,serif" font-size="14.00">sort_order integer NOT NULL</text>
<polyline fill="none" stroke="black" points="89,-841 375,-841 "/>
<text text-anchor="middle" x="232" y="-825.8" font-family="Times,serif" font-size="14.00">line_break boolean DEFAULT false NOT NULL</text>
</g>
<!-- choice&#45;&gt;answer -->
<g id="edge3" class="edge"><title>choice:answer_id&#45;&gt;answer:id</title>
<path fill="none" stroke="black" d="M376,-875C477.104,-875 479.384,-772.183 573.925,-765.356"/>
<polygon fill="black" stroke="black" points="574.13,-768.851 584,-765 573.883,-761.855 574.13,-768.851"/>
</g>
<!-- question -->
<g id="node11" class="node"><title>question</title>
<polygon fill="#b2dfee" stroke="black" points="620,-818 620,-956 844,-956 844,-818 620,-818"/>
<text text-anchor="middle" x="732" y="-940.8" font-family="Times,serif" font-size="14.00">question</text>
<polyline fill="none" stroke="black" points="620,-933 844,-933 "/>
<text text-anchor="middle" x="732" y="-917.8" font-family="Times,serif" font-size="14.00">id integer NOT NULL</text>
<polyline fill="none" stroke="black" points="620,-910 844,-910 "/>
<text text-anchor="middle" x="732" y="-894.8" font-family="Times,serif" font-size="14.00">section_id integer NOT NULL</text>
<polyline fill="none" stroke="black" points="620,-887 844,-887 "/>
<text text-anchor="middle" x="732" y="-871.8" font-family="Times,serif" font-size="14.00">description character varying ( 1024 )</text>
<polyline fill="none" stroke="black" points="620,-864 844,-864 "/>
<text text-anchor="middle" x="732" y="-848.8" font-family="Times,serif" font-size="14.00">sort_order integer NOT NULL</text>
<polyline fill="none" stroke="black" points="620,-841 844,-841 "/>
<text text-anchor="middle" x="732" y="-825.8" font-family="Times,serif" font-size="14.00">question_type character varying ( 20 )</text>
</g>
<!-- choice&#45;&gt;question -->
<g id="edge4" class="edge"><title>choice:question_id&#45;&gt;question:id</title>
<path fill="none" stroke="black" d="M376,-899C480.987,-899 508.754,-920.541 608.763,-921.93"/>
<polygon fill="black" stroke="black" points="608.976,-925.431 619,-922 609.024,-918.431 608.976,-925.431"/>
</g>
<!-- diary_entry -->
<g id="node6" class="node"><title>diary_entry</title>
<polygon fill="#b2dfee" stroke="black" points="0,-434.5 0,-687.5 464,-687.5 464,-434.5 0,-434.5"/>
<text text-anchor="middle" x="232" y="-672.3" font-family="Times,serif" font-size="14.00">diary_entry</text>
<polyline fill="none" stroke="black" points="0,-664.5 464,-664.5 "/>
<text text-anchor="middle" x="232" y="-649.3" font-family="Times,serif" font-size="14.00">id integer NOT NULL</text>
<polyline fill="none" stroke="black" points="0,-641.5 464,-641.5 "/>
<text text-anchor="middle" x="232" y="-626.3" font-family="Times,serif" font-size="14.00">pupil_diary_id integer NOT NULL</text>
<polyline fill="none" stroke="black" points="0,-618.5 464,-618.5 "/>
<text text-anchor="middle" x="232" y="-603.3" font-family="Times,serif" font-size="14.00">question_id integer NOT NULL</text>
<polyline fill="none" stroke="black" points="0,-595.5 464,-595.5 "/>
<text text-anchor="middle" x="232" y="-580.3" font-family="Times,serif" font-size="14.00">answer_id integer</text>
<polyline fill="none" stroke="black" points="0,-572.5 464,-572.5 "/>
<text text-anchor="middle" x="232" y="-557.3" font-family="Times,serif" font-size="14.00">freeformat_text character varying ( 1024 )</text>
<polyline fill="none" stroke="black" points="0,-549.5 464,-549.5 "/>
<text text-anchor="middle" x="232" y="-534.3" font-family="Times,serif" font-size="14.00">actioned boolean</text>
<polyline fill="none" stroke="black" points="0,-526.5 464,-526.5 "/>
<text text-anchor="middle" x="232" y="-511.3" font-family="Times,serif" font-size="14.00">created_timestamp timestamp without time zone DEFAULT now ( ) NOT NULL</text>
<polyline fill="none" stroke="black" points="0,-503.5 464,-503.5 "/>
<text text-anchor="middle" x="232" y="-488.3" font-family="Times,serif" font-size="14.00">created_user_session_id integer NOT NULL</text>
<polyline fill="none" stroke="black" points="0,-480.5 464,-480.5 "/>
<text text-anchor="middle" x="232" y="-465.3" font-family="Times,serif" font-size="14.00">updated_timestamp timestamp without time zone</text>
<polyline fill="none" stroke="black" points="0,-457.5 464,-457.5 "/>
<text text-anchor="middle" x="232" y="-442.3" font-family="Times,serif" font-size="14.00">updated_user_session_id integer</text>
</g>
<!-- diary_entry&#45;&gt;answer -->
<g id="edge5" class="edge"><title>diary_entry:answer_id&#45;&gt;answer:id</title>
<path fill="none" stroke="black" d="M464,-584C516.709,-584 470.267,-653.478 500,-697 525.085,-733.717 534.55,-760.731 573.929,-764.539"/>
<polygon fill="black" stroke="black" points="573.85,-768.039 584,-765 574.171,-761.046 573.85,-768.039"/>
</g>
<!-- pupil_diary -->
<g id="node10" class="node"><title>pupil_diary</title>
<polygon fill="#b2dfee" stroke="black" points="645,-596 645,-688 819,-688 819,-596 645,-596"/>
<text text-anchor="middle" x="732" y="-672.8" font-family="Times,serif" font-size="14.00">pupil_diary</text>
<polyline fill="none" stroke="black" points="645,-665 819,-665 "/>
<text text-anchor="middle" x="732" y="-649.8" font-family="Times,serif" font-size="14.00">id integer NOT NULL</text>
<polyline fill="none" stroke="black" points="645,-642 819,-642 "/>
<text text-anchor="middle" x="732" y="-626.8" font-family="Times,serif" font-size="14.00">pupil_id integer NOT NULL</text>
<polyline fill="none" stroke="black" points="645,-619 819,-619 "/>
<text text-anchor="middle" x="732" y="-603.8" font-family="Times,serif" font-size="14.00">diary_date date NOT NULL</text>
</g>
<!-- diary_entry&#45;&gt;pupil_diary -->
<g id="edge7" class="edge"><title>diary_entry:pupil_diary_id&#45;&gt;pupil_diary:id</title>
<path fill="none" stroke="black" d="M464,-630C541.24,-630 561.58,-651.982 633.93,-653.871"/>
<polygon fill="black" stroke="black" points="633.956,-657.371 644,-654 634.046,-650.372 633.956,-657.371"/>
</g>
<!-- diary_entry&#45;&gt;question -->
<g id="edge8" class="edge"><title>diary_entry:question_id&#45;&gt;question:id</title>
<path fill="none" stroke="black" d="M464,-607C509.377,-607 478.563,-768.006 500,-808 532.912,-869.401 544.613,-917.135 608.705,-921.65"/>
<polygon fill="black" stroke="black" points="608.887,-925.158 619,-922 609.125,-918.162 608.887,-925.158"/>
</g>
<!-- user_session -->
<g id="node15" class="node"><title>user_session</title>
<polygon fill="#b2dfee" stroke="black" points="500,-328 500,-466 964,-466 964,-328 500,-328"/>
<text text-anchor="middle" x="732" y="-450.8" font-family="Times,serif" font-size="14.00">user_session</text>
<polyline fill="none" stroke="black" points="500,-443 964,-443 "/>
<text text-anchor="middle" x="732" y="-427.8" font-family="Times,serif" font-size="14.00">id integer NOT NULL</text>
<polyline fill="none" stroke="black" points="500,-420 964,-420 "/>
<text text-anchor="middle" x="732" y="-404.8" font-family="Times,serif" font-size="14.00">user_account_id integer NOT NULL</text>
<polyline fill="none" stroke="black" points="500,-397 964,-397 "/>
<text text-anchor="middle" x="732" y="-381.8" font-family="Times,serif" font-size="14.00">created_timestamp timestamp without time zone DEFAULT now ( ) NOT NULL</text>
<polyline fill="none" stroke="black" points="500,-374 964,-374 "/>
<text text-anchor="middle" x="732" y="-358.8" font-family="Times,serif" font-size="14.00">ip_address character varying ( 32 ) NOT NULL</text>
<polyline fill="none" stroke="black" points="500,-351 964,-351 "/>
<text text-anchor="middle" x="732" y="-335.8" font-family="Times,serif" font-size="14.00">login_successful boolean NOT NULL</text>
</g>
<!-- diary_entry&#45;&gt;user_session -->
<g id="edge6" class="edge"><title>diary_entry:created_user_session_id&#45;&gt;user_session:id</title>
<path fill="none" stroke="black" d="M464,-492C490.968,-492 474.849,-446.879 490.373,-434.894"/>
<polygon fill="black" stroke="black" points="491.431,-438.231 500,-432 489.416,-431.527 491.431,-438.231"/>
</g>
<!-- diary_entry&#45;&gt;user_session -->
<g id="edge9" class="edge"><title>diary_entry:updated_user_session_id&#45;&gt;user_session:id</title>
<path fill="none" stroke="black" d="M464,-446C477.144,-446 481.2,-437.793 490.085,-433.947"/>
<polygon fill="black" stroke="black" points="490.862,-437.361 500,-432 489.513,-430.492 490.862,-437.361"/>
</g>
<!-- local_authority -->
<g id="node7" class="node"><title>local_authority</title>
<polygon fill="#b2dfee" stroke="black" points="1650.5,-161 1650.5,-253 1907.5,-253 1907.5,-161 1650.5,-161"/>
<text text-anchor="middle" x="1779" y="-237.8" font-family="Times,serif" font-size="14.00">local_authority</text>
<polyline fill="none" stroke="black" points="1650.5,-230 1907.5,-230 "/>
<text text-anchor="middle" x="1779" y="-214.8" font-family="Times,serif" font-size="14.00">id integer NOT NULL</text>
<polyline fill="none" stroke="black" points="1650.5,-207 1907.5,-207 "/>
<text text-anchor="middle" x="1779" y="-191.8" font-family="Times,serif" font-size="14.00">name character varying ( 256 ) NOT NULL</text>
<polyline fill="none" stroke="black" points="1650.5,-184 1907.5,-184 "/>
<text text-anchor="middle" x="1779" y="-168.8" font-family="Times,serif" font-size="14.00">textsearch tsvector</text>
</g>
<!-- pupil -->
<g id="node8" class="node"><title>pupil</title>
<polygon fill="#b2dfee" stroke="black" points="1000,-506.5 1000,-621.5 1292,-621.5 1292,-506.5 1000,-506.5"/>
<text text-anchor="middle" x="1146" y="-606.3" font-family="Times,serif" font-size="14.00">pupil</text>
<polyline fill="none" stroke="black" points="1000,-598.5 1292,-598.5 "/>
<text text-anchor="middle" x="1146" y="-583.3" font-family="Times,serif" font-size="14.00">id integer NOT NULL</text>
<polyline fill="none" stroke="black" points="1000,-575.5 1292,-575.5 "/>
<text text-anchor="middle" x="1146" y="-560.3" font-family="Times,serif" font-size="14.00">name character varying ( 256 )</text>
<polyline fill="none" stroke="black" points="1000,-552.5 1292,-552.5 "/>
<text text-anchor="middle" x="1146" y="-537.3" font-family="Times,serif" font-size="14.00">school_id integer NOT NULL</text>
<polyline fill="none" stroke="black" points="1000,-529.5 1292,-529.5 "/>
<text text-anchor="middle" x="1146" y="-514.3" font-family="Times,serif" font-size="14.00">anonymous boolean DEFAULT false NOT NULL</text>
</g>
<!-- school -->
<g id="node12" class="node"><title>school</title>
<polygon fill="#b2dfee" stroke="black" points="1328.5,-0.5 1328.5,-575.5 1613.5,-575.5 1613.5,-0.5 1328.5,-0.5"/>
<text text-anchor="middle" x="1471" y="-560.3" font-family="Times,serif" font-size="14.00">school</text>
<polyline fill="none" stroke="black" points="1328.5,-552.5 1613.5,-552.5 "/>
<text text-anchor="middle" x="1471" y="-537.3" font-family="Times,serif" font-size="14.00">id integer NOT NULL</text>
<polyline fill="none" stroke="black" points="1328.5,-529.5 1613.5,-529.5 "/>
<text text-anchor="middle" x="1471" y="-514.3" font-family="Times,serif" font-size="14.00">establishment_id integer</text>
<polyline fill="none" stroke="black" points="1328.5,-506.5 1613.5,-506.5 "/>
<text text-anchor="middle" x="1471" y="-491.3" font-family="Times,serif" font-size="14.00">name character varying ( 256 ) NOT NULL</text>
<polyline fill="none" stroke="black" points="1328.5,-483.5 1613.5,-483.5 "/>
<text text-anchor="middle" x="1471" y="-468.3" font-family="Times,serif" font-size="14.00">street character varying ( 128 )</text>
<polyline fill="none" stroke="black" points="1328.5,-460.5 1613.5,-460.5 "/>
<text text-anchor="middle" x="1471" y="-445.3" font-family="Times,serif" font-size="14.00">locality character varying ( 128 )</text>
<polyline fill="none" stroke="black" points="1328.5,-437.5 1613.5,-437.5 "/>
<text text-anchor="middle" x="1471" y="-422.3" font-family="Times,serif" font-size="14.00">address3 character varying ( 128 )</text>
<polyline fill="none" stroke="black" points="1328.5,-414.5 1613.5,-414.5 "/>
<text text-anchor="middle" x="1471" y="-399.3" font-family="Times,serif" font-size="14.00">town character varying ( 128 )</text>
<polyline fill="none" stroke="black" points="1328.5,-391.5 1613.5,-391.5 "/>
<text text-anchor="middle" x="1471" y="-376.3" font-family="Times,serif" font-size="14.00">county character varying ( 128 )</text>
<polyline fill="none" stroke="black" points="1328.5,-368.5 1613.5,-368.5 "/>
<text text-anchor="middle" x="1471" y="-353.3" font-family="Times,serif" font-size="14.00">postcode character varying ( 10 )</text>
<polyline fill="none" stroke="black" points="1328.5,-345.5 1613.5,-345.5 "/>
<text text-anchor="middle" x="1471" y="-330.3" font-family="Times,serif" font-size="14.00">head_first_name character varying ( 64 )</text>
<polyline fill="none" stroke="black" points="1328.5,-322.5 1613.5,-322.5 "/>
<text text-anchor="middle" x="1471" y="-307.3" font-family="Times,serif" font-size="14.00">head_last_name character varying ( 64 )</text>
<polyline fill="none" stroke="black" points="1328.5,-299.5 1613.5,-299.5 "/>
<text text-anchor="middle" x="1471" y="-284.3" font-family="Times,serif" font-size="14.00">head_job_title character varying ( 64 )</text>
<polyline fill="none" stroke="black" points="1328.5,-276.5 1613.5,-276.5 "/>
<text text-anchor="middle" x="1471" y="-261.3" font-family="Times,serif" font-size="14.00">head_salutation character varying ( 32 )</text>
<polyline fill="none" stroke="black" points="1328.5,-253.5 1613.5,-253.5 "/>
<text text-anchor="middle" x="1471" y="-238.3" font-family="Times,serif" font-size="14.00">last_changed date NOT NULL</text>
<polyline fill="none" stroke="black" points="1328.5,-230.5 1613.5,-230.5 "/>
<text text-anchor="middle" x="1471" y="-215.3" font-family="Times,serif" font-size="14.00">local_authority_id integer NOT NULL</text>
<polyline fill="none" stroke="black" points="1328.5,-207.5 1613.5,-207.5 "/>
<text text-anchor="middle" x="1471" y="-192.3" font-family="Times,serif" font-size="14.00">website_url character varying ( 256 )</text>
<polyline fill="none" stroke="black" points="1328.5,-184.5 1613.5,-184.5 "/>
<text text-anchor="middle" x="1471" y="-169.3" font-family="Times,serif" font-size="14.00">school_type character varying ( 64 ) NOT NULL</text>
<polyline fill="none" stroke="black" points="1328.5,-161.5 1613.5,-161.5 "/>
<text text-anchor="middle" x="1471" y="-146.3" font-family="Times,serif" font-size="14.00">school_capacity integer</text>
<polyline fill="none" stroke="black" points="1328.5,-138.5 1613.5,-138.5 "/>
<text text-anchor="middle" x="1471" y="-123.3" font-family="Times,serif" font-size="14.00">num_boys integer</text>
<polyline fill="none" stroke="black" points="1328.5,-115.5 1613.5,-115.5 "/>
<text text-anchor="middle" x="1471" y="-100.3" font-family="Times,serif" font-size="14.00">num_girls integer</text>
<polyline fill="none" stroke="black" points="1328.5,-92.5 1613.5,-92.5 "/>
<text text-anchor="middle" x="1471" y="-77.3" font-family="Times,serif" font-size="14.00">num_pupil integer</text>
<polyline fill="none" stroke="black" points="1328.5,-69.5 1613.5,-69.5 "/>
<text text-anchor="middle" x="1471" y="-54.3" font-family="Times,serif" font-size="14.00">easting integer</text>
<polyline fill="none" stroke="black" points="1328.5,-46.5 1613.5,-46.5 "/>
<text text-anchor="middle" x="1471" y="-31.3" font-family="Times,serif" font-size="14.00">northing integer</text>
<polyline fill="none" stroke="black" points="1328.5,-23.5 1613.5,-23.5 "/>
<text text-anchor="middle" x="1471" y="-8.3" font-family="Times,serif" font-size="14.00">textsearch tsvector</text>
</g>
<!-- pupil&#45;&gt;school -->
<g id="edge12" class="edge"><title>pupil:school_id&#45;&gt;school:id</title>
<path fill="none" stroke="black" d="M1292,-541C1304,-541 1309.25,-541 1317.88,-541"/>
<polygon fill="black" stroke="black" points="1318,-544.5 1328,-541 1318,-537.5 1318,-544.5"/>
</g>
<!-- pupil_category -->
<g id="node9" class="node"><title>pupil_category</title>
<polygon fill="#b2dfee" stroke="black" points="582.5,-485 582.5,-577 881.5,-577 881.5,-485 582.5,-485"/>
<text text-anchor="middle" x="732" y="-561.8" font-family="Times,serif" font-size="14.00">pupil_category</text>
<polyline fill="none" stroke="black" points="582.5,-554 881.5,-554 "/>
<text text-anchor="middle" x="732" y="-538.8" font-family="Times,serif" font-size="14.00">pupil_id integer NOT NULL</text>
<polyline fill="none" stroke="black" points="582.5,-531 881.5,-531 "/>
<text text-anchor="middle" x="732" y="-515.8" font-family="Times,serif" font-size="14.00">category_code character varying ( 20 ) NOT NULL</text>
<polyline fill="none" stroke="black" points="582.5,-508 881.5,-508 "/>
<text text-anchor="middle" x="732" y="-492.8" font-family="Times,serif" font-size="14.00">category_type character varying ( 20 )</text>
</g>
<!-- pupil_category&#45;&gt;pupil -->
<g id="edge10" class="edge"><title>pupil_category:pupil_id&#45;&gt;pupil:id</title>
<path fill="none" stroke="black" d="M883,-543C934.975,-543 943.479,-581.511 989.85,-586.475"/>
<polygon fill="black" stroke="black" points="989.833,-589.979 1000,-587 990.194,-582.988 989.833,-589.979"/>
</g>
<!-- pupil_diary&#45;&gt;pupil -->
<g id="edge11" class="edge"><title>pupil_diary:pupil_id&#45;&gt;pupil:id</title>
<path fill="none" stroke="black" d="M820,-630C898.717,-630 916.294,-590.616 989.756,-587.231"/>
<polygon fill="black" stroke="black" points="990.082,-590.725 1000,-587 989.923,-583.727 990.082,-590.725"/>
</g>
<!-- section -->
<g id="node13" class="node"><title>section</title>
<polygon fill="#b2dfee" stroke="black" points="1002.5,-795 1002.5,-933 1289.5,-933 1289.5,-795 1002.5,-795"/>
<text text-anchor="middle" x="1146" y="-917.8" font-family="Times,serif" font-size="14.00">section</text>
<polyline fill="none" stroke="black" points="1002.5,-910 1289.5,-910 "/>
<text text-anchor="middle" x="1146" y="-894.8" font-family="Times,serif" font-size="14.00">id integer NOT NULL</text>
<polyline fill="none" stroke="black" points="1002.5,-887 1289.5,-887 "/>
<text text-anchor="middle" x="1146" y="-871.8" font-family="Times,serif" font-size="14.00">description character varying ( 200 ) NOT NULL</text>
<polyline fill="none" stroke="black" points="1002.5,-864 1289.5,-864 "/>
<text text-anchor="middle" x="1146" y="-848.8" font-family="Times,serif" font-size="14.00">sort_order integer NOT NULL</text>
<polyline fill="none" stroke="black" points="1002.5,-841 1289.5,-841 "/>
<text text-anchor="middle" x="1146" y="-825.8" font-family="Times,serif" font-size="14.00">start_page integer NOT NULL</text>
<polyline fill="none" stroke="black" points="1002.5,-818 1289.5,-818 "/>
<text text-anchor="middle" x="1146" y="-802.8" font-family="Times,serif" font-size="14.00">end_page integer NOT NULL</text>
</g>
<!-- question&#45;&gt;section -->
<g id="edge13" class="edge"><title>question:section_id&#45;&gt;section:id</title>
<path fill="none" stroke="black" d="M845,-899C910.812,-899 929.772,-899 990.826,-899"/>
<polygon fill="black" stroke="black" points="991,-902.5 1001,-899 991,-895.5 991,-902.5"/>
</g>
<!-- school&#45;&gt;local_authority -->
<g id="edge14" class="edge"><title>school:local_authority_id&#45;&gt;local_authority:id</title>
<path fill="none" stroke="black" d="M1614,-219C1626,-219 1631.25,-219 1639.88,-219"/>
<polygon fill="black" stroke="black" points="1640,-222.5 1650,-219 1640,-215.5 1640,-222.5"/>
</g>
<!-- user_account -->
<g id="node14" class="node"><title>user_account</title>
<polygon fill="#b2dfee" stroke="black" points="1008.5,-282.5 1008.5,-443.5 1283.5,-443.5 1283.5,-282.5 1008.5,-282.5"/>
<text text-anchor="middle" x="1146" y="-428.3" font-family="Times,serif" font-size="14.00">user_account</text>
<polyline fill="none" stroke="black" points="1008.5,-420.5 1283.5,-420.5 "/>
<text text-anchor="middle" x="1146" y="-405.3" font-family="Times,serif" font-size="14.00">id integer NOT NULL</text>
<polyline fill="none" stroke="black" points="1008.5,-397.5 1283.5,-397.5 "/>
<text text-anchor="middle" x="1146" y="-382.3" font-family="Times,serif" font-size="14.00">login character varying ( 16 ) NOT NULL</text>
<polyline fill="none" stroke="black" points="1008.5,-374.5 1283.5,-374.5 "/>
<text text-anchor="middle" x="1146" y="-359.3" font-family="Times,serif" font-size="14.00">name character varying ( 100 ) NOT NULL</text>
<polyline fill="none" stroke="black" points="1008.5,-351.5 1283.5,-351.5 "/>
<text text-anchor="middle" x="1146" y="-336.3" font-family="Times,serif" font-size="14.00">pw_hash character varying ( 256 ) NOT NULL</text>
<polyline fill="none" stroke="black" points="1008.5,-328.5 1283.5,-328.5 "/>
<text text-anchor="middle" x="1146" y="-313.3" font-family="Times,serif" font-size="14.00">role character varying ( 10 ) NOT NULL</text>
<polyline fill="none" stroke="black" points="1008.5,-305.5 1283.5,-305.5 "/>
<text text-anchor="middle" x="1146" y="-290.3" font-family="Times,serif" font-size="14.00">active boolean NOT NULL</text>
</g>
<!-- user_session&#45;&gt;user_account -->
<g id="edge15" class="edge"><title>user_session:user_account_id&#45;&gt;user_account:id</title>
<path fill="none" stroke="black" d="M964,-409C979.229,-409 985.357,-409 996.888,-409"/>
<polygon fill="black" stroke="black" points="997,-412.5 1007,-409 997,-405.5 997,-412.5"/>
</g>
</g>
</svg>
